<svg xmlns="http://www.w3.org/2000/svg" width="20" height="35" viewBox="0 0 20 35">
  <metadata><?xpacket begin="﻿" id="W5M0MpCehiHzreSzNTczkc9d"?>
<x:xmpmeta xmlns:x="adobe:ns:meta/" x:xmptk="Adobe XMP Core 5.6-c142 79.160924, 2017/07/13-01:06:39        ">
   <rdf:RDF xmlns:rdf="http://www.w3.org/1999/02/22-rdf-syntax-ns#">
      <rdf:Description rdf:about=""/>
   </rdf:RDF>
</x:xmpmeta>
                                                                                                    
                                                                                                    
                                                                                                    
                                                                                                    
                                                                                                    
                                                                                                    
                                                                                                    
                                                                                                    
                                                                                                    
                                                                                                    
                                                                                                    
                                                                                                    
                                                                                                    
                                                                                                    
                                                                                                    
                                                                                                    
                                                                                                    
                                                                                                    
                                                                                                    
                                                                                                    
                           
<?xpacket end="w"?></metadata>
<defs>
    <style>
      .cls-1 {
        fill: #fff;
        fill-rule: evenodd;
      }
    </style>
  </defs>
  <path id="Mouse" class="cls-1" d="M9.114,0A9.89,9.89,0,0,0,5,1.316,10.176,10.176,0,0,0,0,10.1V24.854A10.176,10.176,0,0,0,5,33.64a9.883,9.883,0,0,0,10,0,10.176,10.176,0,0,0,5-8.785V10.1a10.176,10.176,0,0,0-5-8.785A9.872,9.872,0,0,0,10.935,0M9.091,1.855v5.66a2.866,2.866,0,0,0-.547.247A2.964,2.964,0,0,0,7.088,10.32v3.25a2.964,2.964,0,0,0,1.456,2.557,2.878,2.878,0,0,0,2.912,0,2.963,2.963,0,0,0,1.456-2.557V10.319a2.964,2.964,0,0,0-1.456-2.558,2.855,2.855,0,0,0-.547-0.246V1.855a8.079,8.079,0,0,1,3.182,1.058A8.317,8.317,0,0,1,18.182,10.1V24.854a8.317,8.317,0,0,1-4.091,7.188,8.076,8.076,0,0,1-8.182,0,8.317,8.317,0,0,1-4.091-7.188V10.1A8.318,8.318,0,0,1,5.909,2.913,8.079,8.079,0,0,1,9.091,1.855ZM10,9.21a1.071,1.071,0,0,1,.547.15,1.106,1.106,0,0,1,.547.959V13.57a1.107,1.107,0,0,1-.547.96,1.077,1.077,0,0,1-1.093,0,1.106,1.106,0,0,1-.547-0.96V10.319A1.1,1.1,0,0,1,9.454,9.36,1.064,1.064,0,0,1,10,9.21Z"/>
</svg>
